<svg width="836" height="837" viewBox="0 0 836 837" fill="none" xmlns="http://www.w3.org/2000/svg">
<rect width="836" height="837" fill="#F5F5F5"/>
<path opacity="0.2" d="M378.537 124.456C407.907 107.848 444.093 107.848 473.463 124.456L610.537 201.969C639.907 218.577 658 249.271 658 282.488V437.512C658 470.729 639.907 501.423 610.537 518.031L473.463 595.544C444.093 612.152 407.907 612.152 378.537 595.544L241.463 518.031C212.093 501.423 194 470.729 194 437.512V282.488C194 249.271 212.093 218.577 241.463 201.969L378.537 124.456Z" fill="url(#paint0_linear_502_3)"/>
<path opacity="0.06" d="M355.806 48.4745C394.292 26.5085 441.708 26.5085 480.193 48.4745L659.806 150.991C698.292 172.957 722 213.552 722 257.484V462.516C722 506.448 698.292 547.043 659.806 569.009L480.194 671.525C441.708 693.491 394.292 693.492 355.806 671.526L176.194 569.009C137.708 547.043 114 506.448 114 462.516V257.484C114 213.552 137.708 172.957 176.193 150.991L355.806 48.4745Z" fill="url(#paint1_linear_502_3)"/>
<g style="mix-blend-mode:screen" filter="url(#filter0_d_502_3)">
<circle cx="418" cy="352" r="192" fill="url(#paint2_linear_502_3)" shape-rendering="crispEdges"/>
</g>
<circle opacity="0.5" r="136.114" transform="matrix(-1 0 0 1 418 352)" fill="url(#paint3_linear_502_3)" stroke="url(#paint4_linear_502_3)" stroke-width="15.7716"/>
<path fill-rule="evenodd" clip-rule="evenodd" d="M415.985 538.798C520.911 538.798 605.97 454.001 605.97 349.399C605.97 307.027 592.013 267.904 568.431 236.352C594.444 268.758 610 309.868 610 354.601C610 459.203 524.941 544 420.015 544C357.592 544 302.201 513.988 267.568 467.648C302.383 511.019 355.93 538.798 415.985 538.798ZM267.568 467.648C241.556 435.242 226 394.132 226 349.399C226 244.797 311.059 160 415.985 160C478.408 160 533.799 190.012 568.431 236.352C533.616 192.981 480.07 165.202 420.015 165.202C315.089 165.202 230.03 249.999 230.03 354.601C230.03 396.973 243.987 436.095 267.568 467.648Z" fill="url(#paint5_linear_502_3)"/>
<g filter="url(#filter1_f_502_3)">
<path fill-rule="evenodd" clip-rule="evenodd" d="M437.011 542.808C533.956 534.236 610 451.98 610 351.772C610 245.859 525.05 160 420.259 160C413.068 160 405.971 160.404 398.989 161.192C302.044 169.763 226 252.019 226 352.227C226 458.14 310.95 543.999 415.741 543.999C422.931 543.999 430.028 543.595 437.011 542.808ZM420.259 543.545C425.904 543.545 431.491 543.296 437.011 542.808C531.79 532.122 605.482 450.872 605.482 352.227C605.482 246.314 520.532 160.454 415.741 160.454C410.096 160.454 404.508 160.703 398.989 161.192C304.21 171.877 230.518 253.127 230.518 351.772C230.518 457.685 315.468 543.545 420.259 543.545Z" fill="url(#paint6_linear_502_3)"/>
</g>
<g filter="url(#filter2_f_502_3)">
<path fill-rule="evenodd" clip-rule="evenodd" d="M417.87 541.144C523.838 541.144 609.741 455.822 609.741 350.572C609.741 346.332 609.602 342.123 609.327 337.952C609.773 343.247 610.001 348.605 610.001 354.015C610.001 458.941 524.362 544 418.722 544C339.345 544 271.262 495.978 242.314 427.589C272.102 494.475 339.499 541.144 417.87 541.144ZM242.314 427.589C231.826 404.038 226 377.981 226 350.572C226 245.322 311.903 160 417.87 160C519.568 160 602.786 238.585 609.327 337.952C601.116 240.544 518.915 164.03 418.722 164.03C313.081 164.03 227.442 249.089 227.442 354.015C227.442 380.102 232.736 404.96 242.314 427.589Z" fill="url(#paint7_linear_502_3)"/>
</g>
<g filter="url(#filter3_f_502_3)">
<path d="M264.712 227.115L284.632 241.062L304.552 227.115L290.604 247.034L304.552 266.954L284.632 253.007L264.712 266.954L278.66 247.034L264.712 227.115Z" fill="white"/>
</g>
<g filter="url(#filter4_f_502_3)">
<path d="M284.632 218.866L288.855 242.814L312.802 247.037L288.855 251.26L284.632 275.207L280.409 251.26L256.461 247.037L280.409 242.814L284.632 218.866Z" fill="white"/>
</g>
<defs>
<filter id="filter0_d_502_3" x="0.102661" y="0.845055" width="835.795" height="835.795" filterUnits="userSpaceOnUse" color-interpolation-filters="sRGB">
<feFlood flood-opacity="0" result="BackgroundImageFix"/>
<feColorMatrix in="SourceAlpha" type="matrix" values="0 0 0 0 0 0 0 0 0 0 0 0 0 0 0 0 0 0 127 0" result="hardAlpha"/>
<feOffset dy="66.7424"/>
<feGaussianBlur stdDeviation="112.949"/>
<feComposite in2="hardAlpha" operator="out"/>
<feColorMatrix type="matrix" values="0 0 0 0 0.302289 0 0 0 0 0.247778 0 0 0 0 0.929167 0 0 0 0.4 0"/>
<feBlend mode="normal" in2="BackgroundImageFix" result="effect1_dropShadow_502_3"/>
<feBlend mode="normal" in="SourceGraphic" in2="effect1_dropShadow_502_3" result="shape"/>
</filter>
<filter id="filter1_f_502_3" x="210.598" y="144.598" width="414.804" height="414.803" filterUnits="userSpaceOnUse" color-interpolation-filters="sRGB">
<feFlood flood-opacity="0" result="BackgroundImageFix"/>
<feBlend mode="normal" in="SourceGraphic" in2="BackgroundImageFix" result="shape"/>
<feGaussianBlur stdDeviation="7.70105" result="effect1_foregroundBlur_502_3"/>
</filter>
<filter id="filter2_f_502_3" x="210.598" y="144.598" width="414.805" height="414.804" filterUnits="userSpaceOnUse" color-interpolation-filters="sRGB">
<feFlood flood-opacity="0" result="BackgroundImageFix"/>
<feBlend mode="normal" in="SourceGraphic" in2="BackgroundImageFix" result="shape"/>
<feGaussianBlur stdDeviation="7.70105" result="effect1_foregroundBlur_502_3"/>
</filter>
<filter id="filter3_f_502_3" x="252.141" y="214.543" width="64.9826" height="64.9827" filterUnits="userSpaceOnUse" color-interpolation-filters="sRGB">
<feFlood flood-opacity="0" result="BackgroundImageFix"/>
<feBlend mode="normal" in="SourceGraphic" in2="BackgroundImageFix" result="shape"/>
<feGaussianBlur stdDeviation="6.2859" result="effect1_foregroundBlur_502_3"/>
</filter>
<filter id="filter4_f_502_3" x="250.175" y="212.58" width="68.9127" height="68.9127" filterUnits="userSpaceOnUse" color-interpolation-filters="sRGB">
<feFlood flood-opacity="0" result="BackgroundImageFix"/>
<feBlend mode="normal" in="SourceGraphic" in2="BackgroundImageFix" result="shape"/>
<feGaussianBlur stdDeviation="3.14295" result="effect1_foregroundBlur_502_3"/>
</filter>
<linearGradient id="paint0_linear_502_3" x1="250.238" y1="124.252" x2="513.262" y2="621.267" gradientUnits="userSpaceOnUse">
<stop stop-color="#4D3FED"/>
<stop offset="1" stop-color="#4D3FED" stop-opacity="0"/>
</linearGradient>
<linearGradient id="paint1_linear_502_3" x1="187.691" y1="48.2037" x2="537.375" y2="702.859" gradientUnits="userSpaceOnUse">
<stop stop-color="#4D3FED"/>
<stop offset="1" stop-color="#4D3FED" stop-opacity="0"/>
</linearGradient>
<linearGradient id="paint2_linear_502_3" x1="292.204" y1="200.926" x2="697.04" y2="569.6" gradientUnits="userSpaceOnUse">
<stop stop-color="#EEF5F7"/>
<stop offset="0.0759848" stop-color="#AA83FF"/>
<stop offset="0.493434" stop-color="#31279D"/>
<stop offset="0.895833" stop-color="#31279D" stop-opacity="0"/>
</linearGradient>
<linearGradient id="paint3_linear_502_3" x1="260.226" y1="-23.2602" x2="78.4154" y2="287.698" gradientUnits="userSpaceOnUse">
<stop stop-color="#0A0450" stop-opacity="0.41"/>
<stop offset="1" stop-color="#9383FF" stop-opacity="0.06"/>
</linearGradient>
<linearGradient id="paint4_linear_502_3" x1="208.817" y1="-8.21379" x2="153.647" y2="110.903" gradientUnits="userSpaceOnUse">
<stop stop-color="#F0A9FC"/>
<stop offset="1" stop-color="#9383FF" stop-opacity="0"/>
</linearGradient>
<linearGradient id="paint5_linear_502_3" x1="190.649" y1="16.4537" x2="468.157" y2="354.03" gradientUnits="userSpaceOnUse">
<stop offset="0.010214" stop-color="#EBBFFF"/>
<stop offset="0.704771" stop-color="#EEF5F7" stop-opacity="0"/>
</linearGradient>
<linearGradient id="paint6_linear_502_3" x1="230.521" y1="115.893" x2="475.913" y2="353" gradientUnits="userSpaceOnUse">
<stop offset="0.310959" stop-color="white"/>
<stop offset="0.704771" stop-color="#EEF5F7" stop-opacity="0"/>
</linearGradient>
<linearGradient id="paint7_linear_502_3" x1="226" y1="116.303" x2="469.217" y2="355.444" gradientUnits="userSpaceOnUse">
<stop offset="0.310959" stop-color="white"/>
<stop offset="0.704771" stop-color="#EEF5F7" stop-opacity="0"/>
</linearGradient>
</defs>
</svg>
